<svg width="233" height="167" viewBox="0 0 233 167" fill="none" xmlns="http://www.w3.org/2000/svg">
<path d="M94.256 19.2094C91.6607 21.4306 90.1076 22.1646 86.8264 20.808C87.8195 23.4029 90.0105 26.6698 92.3986 26.9362C94.7867 27.2027 97.4401 26.9362 98.7668 25.3376C100.093 23.7389 98.3397 19.7629 94.256 19.2094Z" fill="#4477BB" stroke="#4477BB"/>
<path d="M109.523 22.6191C109.575 22.4866 109.571 22.4361 109.507 22.4847C109.507 22.4847 109.514 22.5305 109.523 22.6191C109.095 23.7173 104.825 30.4465 98.7591 32.9072C92.8871 35.2893 82.7997 29.9759 82.7997 29.9759C81.0676 31.1109 89.5093 36.8907 89.9651 39.0956C90.8718 43.4812 72.3777 39.5141 73.3543 41.0498C78.8498 47.2702 90.7689 46.7664 92.2451 47.2381C93.7212 47.7099 86.9381 52.7935 80.1941 57.0092C80.7544 57.5537 94.2433 56.0568 102.668 44.9582C110.557 34.5637 109.668 23.9267 109.523 22.6191Z" fill="#A9CBD3"/>
<path d="M109.507 22.4847C110.099 22.0326 105.556 30.1498 98.7591 32.9072C92.8871 35.2893 82.7997 29.9759 82.7997 29.9759C81.0676 31.1109 89.5093 36.8907 89.9651 39.0956C90.8718 43.4812 72.3777 39.5141 73.3543 41.0498C78.8498 47.2702 90.7689 46.7664 92.2451 47.2381C93.7212 47.7099 86.9381 52.7935 80.1941 57.0092C80.7544 57.5537 94.2433 56.0568 102.668 44.9582C111.092 33.8597 109.507 22.4847 109.507 22.4847Z" stroke="#4477BB"/>
<path d="M95.0847 19.2094C91.899 21.9246 89.9926 22.8218 85.965 21.1636C87.184 24.3356 89.8734 28.3291 92.8048 28.6548C95.7362 28.9805 98.9932 28.6548 100.622 26.7005C102.25 24.7463 100.097 19.886 95.0847 19.2094Z" fill="#A9CBD3" stroke="#4477BB"/>
<path d="M114.919 0.0533466C111.279 0.719196 108.345 3.36553 107.316 6.92527C107.018 7.96673 106.933 8.57283 106.933 9.69966C106.933 11.3472 107.171 12.4057 107.877 13.857C108.388 14.907 108.677 15.2484 109.051 15.2484C109.391 15.2484 109.74 14.9155 109.74 14.5996C109.74 14.4716 109.587 14.1131 109.408 13.7972C108.94 12.9777 108.643 12.1753 108.447 11.2362C108.226 10.1692 108.269 8.44478 108.549 7.48015C108.77 6.70332 109.051 6.02894 109.161 6.02894C109.298 6.02894 109.57 6.79723 109.867 8.02649C110.352 10.007 110.939 10.9716 111.968 11.4838C112.98 11.996 113.967 11.774 114.392 10.946C114.562 10.6131 114.545 9.83624 114.341 9.24722C114.12 8.61551 114.162 8.496 114.953 7.66796C115.693 6.88259 115.906 6.43869 115.846 5.73016C115.812 5.37162 115.736 5.15821 115.497 4.80821C115.327 4.56065 115.183 4.25333 115.183 4.12528C115.183 3.99724 115.378 3.61309 115.667 3.1948C116.186 2.42651 116.543 1.72651 116.543 1.47042C116.543 1.31676 116.594 1.30822 117.292 1.35944C118.006 1.41066 118.908 1.61554 119.597 1.89724L119.928 2.02529L119.682 2.42651C119.316 3.0326 119.146 3.80089 119.205 4.66309C119.29 5.99479 119.665 6.61796 120.43 6.68625C120.787 6.7204 120.881 6.69479 121.221 6.43869L121.604 6.15698H122.667C123.254 6.14845 123.789 6.12284 123.866 6.08869C124.019 6.01186 124.104 6.17406 124.41 7.0704C124.716 7.94966 124.818 8.81185 124.767 9.93868C124.699 11.5094 124.249 12.9094 123.415 14.207C122.998 14.8472 121.859 16.0679 121.485 16.2643C121.315 16.3582 121.289 16.3326 121.11 15.957C120.983 15.6752 120.923 15.385 120.923 15.035C120.932 14.4801 121.153 13.9765 122.012 12.6021C122.777 11.3728 122.956 10.3484 122.548 9.47771C122.191 8.71795 121.527 8.36795 120.549 8.43624C119.852 8.48746 116.246 9.66551 115.676 10.0326C114.868 10.5448 114.494 11.3899 114.434 12.8582C114.375 14.3435 114.587 14.8557 115.429 15.2911C115.65 15.4021 115.872 15.5387 115.923 15.607C115.965 15.6667 116.11 16.0509 116.237 16.4606C116.416 17.0411 116.535 17.2887 116.799 17.5618L117.13 17.9204L116.135 17.8691C114.545 17.8008 113.184 17.3399 111.849 16.435C111.228 16.0082 110.828 15.957 110.573 16.2728C110.369 16.5204 110.378 16.9984 110.582 17.2033C111.194 17.8179 112.801 18.646 114.06 18.9874C114.809 19.1838 115.038 19.2094 116.416 19.2094C117.709 19.2094 118.057 19.1838 118.678 19.0301C122.463 18.0655 125.227 15.2484 125.984 11.5777C126.145 10.8009 126.162 10.4936 126.128 9.31551C126.094 8.31673 126.035 7.77039 125.907 7.27527C124.972 3.7326 122.412 1.1631 118.84 0.207005C118.346 0.0704193 117.87 0.0277367 116.756 0.00212669C115.965 -0.0064106 115.132 0.0106621 114.919 0.0533466ZM115.098 1.48749C115.098 1.53017 114.911 1.82895 114.681 2.15334C113.967 3.17773 113.873 3.42529 113.865 4.20211C113.865 4.86796 113.882 4.91918 114.188 5.36308C114.358 5.61918 114.502 5.89235 114.502 5.96918C114.502 6.05455 114.213 6.43015 113.865 6.80576C112.895 7.84722 112.682 8.4021 112.929 9.27283C113.006 9.52892 113.082 9.88746 113.116 10.0582C113.159 10.3484 113.142 10.3826 112.98 10.3826C112.546 10.3826 112.028 9.93014 111.687 9.25575C111.594 9.06795 111.364 8.31673 111.177 7.58259C110.82 6.17406 110.65 5.71308 110.242 5.08138C110.105 4.86796 109.995 4.64601 109.995 4.58626C109.995 4.42406 111.271 3.18626 111.823 2.81065C112.58 2.29846 113.473 1.87163 114.264 1.64115C115.072 1.40212 115.098 1.39359 115.098 1.48749ZM121.833 3.25455C122.293 3.63016 123.262 4.67162 123.262 4.7826C123.262 4.79967 122.811 4.80821 122.267 4.80821C121.493 4.79967 121.195 4.83382 120.949 4.94479L120.626 5.08991L120.575 4.86796C120.49 4.53504 120.592 3.69846 120.753 3.37407C120.915 3.05821 121.127 2.78504 121.221 2.78504C121.246 2.78504 121.527 2.99846 121.833 3.25455ZM121.229 9.96429C121.374 10.1094 121.4 10.2204 121.374 10.5533C121.332 11.0143 121.161 11.3728 120.49 12.4314C119.75 13.6179 119.571 14.1216 119.571 15.0777C119.571 15.8118 119.597 15.9399 119.843 16.4777C119.996 16.8021 120.115 17.0752 120.115 17.0923C120.115 17.1009 119.954 17.1777 119.75 17.2545L119.384 17.3911L118.568 17.0155C117.675 16.5972 117.734 16.6826 117.343 15.4277C117.173 14.8728 116.799 14.4374 116.237 14.1387L115.821 13.9253L115.795 13.2082C115.761 12.3204 115.94 11.646 116.305 11.3131C116.492 11.1253 117.037 10.9118 118.483 10.4338C120.558 9.74234 120.94 9.67405 121.229 9.96429Z" fill="#4477BB"/>
<path d="M174.132 100.646C176.33 104.05 181.128 110.891 183.697 114.296C184.78 115.72 185.647 117.02 185.647 117.205C185.647 117.608 177.413 117.236 172.647 116.617C168.839 116.122 166.332 115.565 163.825 114.667C159.616 113.12 152.868 111.943 146.554 111.665C136.927 111.201 127.889 113.491 123.246 117.546C120.646 119.836 119.284 119.712 117.799 117.112C117.396 116.432 117.025 115.874 116.932 115.905C116.839 115.905 116.375 116.555 115.849 117.36C114.301 119.805 113.249 119.774 110.339 117.329L108.977 116.184L103.746 116.772C98.1746 117.422 90.1579 118.134 82.1102 118.691C79.3863 118.846 69.8839 119.093 60.9695 119.186C49.3932 119.31 44.8123 119.465 44.8123 119.712C44.8123 119.898 45.0908 120.517 45.4313 121.074L46.0504 122.065H79.2625C106.996 122.065 112.568 122.003 113.063 121.632C113.403 121.415 113.837 121.167 113.991 121.136C114.177 121.105 114.363 121.012 114.456 120.92C114.549 120.796 114.394 120.827 114.146 120.951C113.899 121.074 113.96 120.951 114.301 120.703C116.065 119.248 119.13 119.589 120.77 121.415L121.358 122.065H154.601H187.813L188.432 121.043C188.773 120.517 189.051 119.805 189.051 119.496C189.051 119.217 189.175 118.97 189.33 118.97C189.98 118.97 188.618 115.967 187.225 114.234C186.359 113.212 185.74 112.253 185.832 112.098C185.925 111.943 185.863 111.881 185.709 111.912C185.306 112.036 178.497 103.772 178.713 103.431C178.806 103.277 178.744 103.215 178.559 103.246C178.404 103.308 177.382 102.286 176.361 101.017C175.092 99.5004 174.101 98.5718 173.42 98.3242L172.368 97.9837L174.132 100.646Z" fill="#C16B6B"/>
<path d="M174.69 98.8813C174.844 99.1599 178.032 103.091 181.778 107.61C185.523 112.16 188.742 116.308 188.959 116.865C189.237 117.67 189.33 117.731 189.33 117.205C189.361 116.401 188.835 115.72 181.406 106.65C175.742 99.748 174.163 97.8908 174.69 98.8813Z" fill="#C1966B"/>
<path d="M106.191 116.401C106.47 116.462 106.965 116.462 107.275 116.401C107.553 116.308 107.306 116.246 106.718 116.246C106.13 116.246 105.882 116.308 106.191 116.401Z" fill="#C1966B"/>
<path d="M103.715 116.71C103.994 116.772 104.489 116.772 104.798 116.71C105.077 116.617 104.829 116.555 104.241 116.555C103.653 116.555 103.406 116.617 103.715 116.71Z" fill="#C1966B"/>
<path d="M100.775 117.019C101.146 117.081 101.703 117.081 102.013 117.019C102.291 116.927 101.982 116.865 101.301 116.896C100.62 116.896 100.372 116.958 100.775 117.019Z" fill="#C1966B"/>
<path d="M51.5602 117.329C51.9316 117.391 52.5507 117.391 52.953 117.329C53.3245 117.267 53.0149 117.205 52.2411 117.205C51.4673 117.205 51.1578 117.267 51.5602 117.329Z" fill="#C1966B"/>
<path d="M97.6795 117.329C98.0509 117.391 98.67 117.391 99.0724 117.329C99.4438 117.267 99.1343 117.205 98.3604 117.205C97.5866 117.205 97.2771 117.267 97.6795 117.329Z" fill="#C1966B"/>
<path d="M181.716 117.329C182.521 117.391 183.79 117.391 184.502 117.329C185.213 117.267 184.563 117.236 183.016 117.236C181.499 117.236 180.911 117.267 181.716 117.329Z" fill="#C1966B"/>
<path d="M94.2746 117.639C94.6461 117.7 95.2651 117.7 95.6675 117.639C96.0389 117.577 95.7294 117.515 94.9556 117.515C94.1818 117.515 93.8723 117.577 94.2746 117.639Z" fill="#C1966B"/>
<path d="M90.4056 117.948C90.8699 118.01 91.6128 118.01 92.108 117.948C92.5723 117.886 92.1699 117.824 91.2413 117.824C90.3128 117.824 89.9104 117.886 90.4056 117.948Z" fill="#C1966B"/>
<path d="M86.227 118.258C86.7841 118.319 87.6199 118.319 88.0842 118.258C88.5484 118.196 88.0842 118.134 87.0627 118.134C86.0413 118.134 85.6698 118.196 86.227 118.258Z" fill="#C1966B"/>
<path d="M81.2437 118.567C81.8008 118.629 82.7913 118.629 83.4103 118.567C84.0603 118.505 83.627 118.443 82.4199 118.443C81.2437 118.443 80.7175 118.505 81.2437 118.567Z" fill="#C1966B"/>
<path d="M74.465 118.877C75.3626 118.939 76.7555 118.939 77.5603 118.877C78.365 118.815 77.6222 118.784 75.9198 118.784C74.2174 118.784 73.5674 118.815 74.465 118.877Z" fill="#C1966B"/>
<path d="M44.5028 119.712C44.5028 120.146 44.8742 120.889 45.3076 121.415L46.1123 122.374H79.3245H112.537L113.465 121.601C113.991 121.167 114.858 120.61 115.446 120.362C116.003 120.115 116.282 119.929 116.065 119.898C115.508 119.898 114.487 120.455 113.434 121.322L112.537 122.065H79.2936H46.0504L45.4314 121.043C45.0909 120.517 44.8123 119.867 44.8123 119.681C44.8123 119.372 47.7838 119.279 58.0601 119.186L71.2768 119.124L57.9053 119.031L44.5028 118.97V119.712Z" fill="#C1966B"/>
<path d="M189.052 119.496C189.052 119.805 188.773 120.517 188.433 121.043L187.813 122.065H154.601H121.358L120.77 121.415C120.027 120.579 118.541 119.805 118.077 120.022C117.861 120.084 117.922 120.177 118.232 120.177C118.511 120.208 119.315 120.703 120.027 121.291L121.327 122.374H154.539H187.752L188.556 121.415C189.237 120.61 189.671 118.97 189.206 118.97C189.113 118.97 189.052 119.217 189.052 119.496Z" fill="#C1966B"/>
<path d="M60.072 98.4789C58.772 99.0051 58.2148 99.5932 51.2195 108.26C50.6624 108.941 49.0528 110.891 47.629 112.593C44.9052 115.874 44.5028 116.586 44.5028 118.103V119.062L61.6196 118.877C80.7483 118.691 88.3627 118.258 106.532 116.277C108.358 116.091 108.358 116.091 107.677 115.534C106.594 114.667 102.446 113.181 98.9485 112.439C94.7389 111.51 85.4841 111.448 80.2531 112.253C76.7245 112.81 71.153 114.141 70.2244 114.605C68.1197 115.75 60.2886 116.958 52.891 117.298C48.6505 117.484 48.1243 117.453 48.31 117.05C48.4028 116.772 49.8576 114.698 51.56 112.439C54.0981 109.003 60.5053 99.748 61.341 98.2932C61.6196 97.8289 61.6815 97.8289 60.072 98.4789Z" fill="#EC966B"/>
<path d="M140.456 101.357C135.101 102.007 129.746 104.112 125.753 107.115C123.092 109.127 117.241 114.915 117.241 115.534C117.241 115.967 118.046 117.329 118.913 118.258C119.872 119.372 120.925 119.155 123.122 117.391C128.261 113.274 134.699 111.479 144.48 111.51C151.754 111.51 157.789 112.469 164.444 114.636C167.818 115.719 171.316 116.4 176.051 116.803C179.89 117.143 185.337 117.205 185.337 116.958C185.337 116.865 184.594 115.812 183.697 114.605L182.056 112.439L180.044 112.346C177.228 112.191 174.04 111.046 166.766 107.517C163.268 105.815 158.966 103.957 157.17 103.369C151.785 101.574 145.192 100.769 140.456 101.357Z" fill="#9696C1"/>
<path d="M84.4317 101.543C78.9531 102.378 74.6197 103.895 67.5316 107.393C60.8149 110.674 56.8529 112.129 53.8505 112.376L51.7767 112.562L50.1362 114.76L48.4957 116.957L50.6005 117.05C53.2934 117.174 60.9387 116.586 64.1578 115.998C65.5197 115.75 67.903 115.131 69.4197 114.636C75.1459 112.779 79.5722 111.943 85.6079 111.571C96.5652 110.89 105.108 112.871 110.711 117.36C112.939 119.155 113.991 119.371 114.951 118.257C115.88 117.236 116.622 115.967 116.622 115.44C116.622 114.79 111.02 109.25 108.42 107.3C104.737 104.545 100.032 102.533 95.1413 101.667C93.408 101.357 86.1341 101.264 84.4317 101.543Z" fill="#9696C1"/>
<path d="M66.2934 88.3265C62.7339 88.698 61.5886 88.9765 61.4029 89.4408C61.31 89.6884 59.7005 92.1956 57.8124 95.0123C55.9552 97.829 54.4076 100.181 54.4076 100.243C54.4076 100.398 58.1529 99.098 59.7934 98.3861C60.4434 98.1076 61.1862 97.9528 61.4029 98.0457C61.6505 98.1385 61.8362 98.1076 61.8362 97.9528C61.8362 97.798 63.26 97.3956 65.0243 97.0242C76.0435 94.7337 86.4126 95.6623 96.1936 99.8409C99.7532 101.358 103.994 103.772 103.777 104.143C103.653 104.298 103.839 104.329 104.118 104.205C104.489 104.081 104.582 104.112 104.427 104.391C104.303 104.577 104.303 104.731 104.458 104.7C105.015 104.608 105.387 104.762 105.975 105.289C106.284 105.598 107.275 106.31 108.11 106.898C108.977 107.486 110.927 109.158 112.444 110.612C115.477 113.491 115.446 113.398 111.763 109.065C99.1032 94.1147 82.6054 86.6241 66.2934 88.3265Z" fill="#C1C1C1"/>
<path d="M152.373 96.0955C146.275 96.7455 140.858 98.3241 135.039 101.203C130.582 103.4 128.044 105.041 131.325 103.617C132.315 103.184 134.482 102.441 136.123 102.007C138.785 101.265 139.558 101.172 144.325 101.203C152.156 101.203 156.706 102.41 165.837 106.929C172.863 110.365 176.732 111.85 179.487 112.067C180.663 112.16 181.623 112.16 181.623 112.005C181.623 111.881 181.221 111.262 180.725 110.643C178.992 108.415 171.997 97.9217 172.244 97.8908C172.987 97.7979 164.909 96.3741 162.154 96.0955C158.501 95.7241 155.994 95.7241 152.373 96.0955Z" fill="#C1C1C1"/>
<path d="M71.9579 62.5429C71.834 62.6358 71.7412 63.0691 71.7412 63.4405C71.7412 64.5239 70.0697 68.8882 68.7697 71.2406C66.2007 75.8835 61.6506 82.2597 56.822 87.9241C55.4911 89.5027 54.4077 90.8336 54.4077 90.8955C54.4077 90.9574 56.1101 90.555 58.2149 89.9669C60.2887 89.4098 62.8268 88.7907 63.8483 88.636C81.9246 85.8193 100.094 94.1456 113.744 111.448C114.92 112.903 116.096 114.389 116.375 114.76C116.87 115.379 116.901 114.605 116.932 99.8099V84.2407L114.951 81.7026C110.68 76.224 104.149 70.9311 98.639 68.393C93.6556 66.1334 88.3008 64.7406 79.6341 63.4405C72.2055 62.3263 72.1745 62.3263 71.9579 62.5429ZM73.9698 70.6216C73.6293 71.9216 73.0412 73.8097 72.6698 74.7692C71.865 76.9049 69.4197 80.7121 68.0269 81.9812L67.0054 82.9097L67.8412 81.5169C69.2959 79.1335 72.2364 72.8501 73.3198 69.7858C74.5269 66.412 74.8984 66.9072 73.9698 70.6216Z" fill="#C1C1EC"/>
<path d="M159.337 88.2027C148.875 89.4408 141.354 92.5051 132.718 98.9742C129.282 101.543 123.463 107.239 120.646 110.767L118.696 113.243L120.987 111.046C132.377 100.181 147.111 94.7027 161.411 96.0337C165.713 96.4051 173.978 97.9837 174.628 98.5409C175.03 98.8504 179.456 100.46 179.456 100.274C179.456 100.15 173.39 90.9265 172.523 89.6884C172.182 89.1932 171.471 88.9146 170.047 88.667C167.88 88.2955 161.07 87.986 159.337 88.2027Z" fill="#C1C1EC"/>
<path d="M70.5031 96.0647C69.2341 96.2504 66.7888 96.6528 65.0864 97.0242L61.9912 97.6742L59.7316 101.11C58.4935 103.029 56.3268 106.248 54.8721 108.291C53.4482 110.334 52.3339 112.067 52.4268 112.129C52.6744 112.377 55.1197 112.16 56.9149 111.696C59.2673 111.077 62.084 109.87 68.0579 106.96C77.0032 102.565 82.1104 101.172 89.3842 101.172C95.2343 101.203 98.9795 102.008 103.777 104.298C106.408 105.567 105.696 104.948 101.92 102.719C96.9057 99.748 90.9009 97.5504 85.0509 96.498C81.8318 95.9099 73.6603 95.6932 70.5031 96.0647Z" fill="#C1C1EC"/>
<path d="M155.994 63.1001C142.87 65.0502 136.246 67.1859 129.777 71.4883C125.784 74.1193 121.296 78.3907 118.232 82.4765L116.932 84.2098L116.994 99.7171L117.087 115.224L119.408 112.253C127.549 101.791 138.165 93.8051 148.504 90.3694C157.82 87.2741 168.654 87.367 177.94 90.648C178.651 90.9266 179.301 91.0504 179.394 90.9885C179.456 90.8956 178.125 89.1932 176.454 87.1813C172.925 83.0027 169.799 78.7931 167.416 75.0479C165.156 71.5193 162.525 65.9168 162.216 64.0287C161.999 62.7906 161.844 62.4811 161.349 62.4501C161.008 62.4192 158.594 62.7287 155.994 63.1001Z" fill="#ECECEC"/>
<path d="M73.1339 70.3121C71.9577 73.5931 69.0172 79.7217 67.6863 81.8265L66.9744 82.9098L67.9958 81.9812C69.6672 80.4646 71.8958 76.8122 72.9173 73.9955C73.8149 71.5502 74.7435 67.4026 74.4959 67.124C74.4339 67.0621 73.8149 68.5168 73.1339 70.3121Z" fill="#ECECEC"/>
<path d="M138.708 19.2094C141.303 21.4306 142.857 22.1646 146.138 20.808C145.145 23.4029 142.954 26.6698 140.566 26.9362C138.177 27.2027 135.524 26.9362 134.197 25.3376C132.871 23.7389 134.624 19.7629 138.708 19.2094Z" fill="#C66D32" stroke="#C66D32"/>
<path d="M123.441 22.6191C123.389 22.4866 123.393 22.4361 123.457 22.4847C123.457 22.4847 123.451 22.5305 123.441 22.6191C123.869 23.7173 128.139 30.4465 134.205 32.9072C140.077 35.2893 150.164 29.9759 150.164 29.9759C151.897 31.1109 143.455 36.8907 142.999 39.0956C142.092 43.4812 160.586 39.5141 159.61 41.0498C154.114 47.2702 142.195 46.7664 140.719 47.2381C139.243 47.7099 146.026 52.7935 152.77 57.0092C152.21 57.5537 138.721 56.0568 130.297 44.9582C122.407 34.5637 123.296 23.9267 123.441 22.6191Z" fill="#F2A37C"/>
<path d="M123.457 22.4847C122.866 22.0326 127.408 30.1498 134.205 32.9072C140.077 35.2893 150.164 29.9759 150.164 29.9759C151.897 31.1109 143.455 36.8907 142.999 39.0956C142.092 43.4812 160.586 39.5141 159.61 41.0498C154.114 47.2702 142.195 46.7664 140.719 47.2381C139.243 47.7099 146.026 52.7935 152.77 57.0092C152.21 57.5537 138.721 56.0568 130.297 44.9582C121.872 33.8597 123.457 22.4847 123.457 22.4847Z" stroke="#C66D32"/>
<path d="M137.879 19.2094C141.065 21.9246 142.971 22.8218 146.999 21.1636C145.78 24.3356 143.091 28.3291 140.159 28.6548C137.228 28.9805 133.971 28.6548 132.342 26.7005C130.714 24.7463 132.867 19.886 137.879 19.2094Z" fill="#F2A37C" stroke="#C66D32"/>
<path d="M15.4614 156.374C14.7414 156.374 14.1474 156.278 13.6794 156.086C13.2114 155.894 12.8154 155.594 12.4914 155.186C12.1674 154.766 11.8554 154.238 11.5554 153.602L9.70137 149.588L11.2494 150.776C10.8774 150.824 10.5054 150.896 10.1334 150.992C9.77337 151.076 9.47337 151.208 9.23337 151.388C9.00537 151.568 8.89137 151.832 8.89137 152.18C8.89137 152.444 8.96337 152.726 9.10737 153.026C9.26337 153.326 9.44937 153.632 9.66537 153.944C9.88137 154.256 10.0974 154.568 10.3134 154.88C10.5414 155.192 10.7274 155.498 10.8714 155.798C11.0274 156.086 11.1054 156.35 11.1054 156.59C11.1054 157.43 10.8534 158.192 10.3494 158.876C9.85737 159.56 9.16137 160.106 8.26137 160.514C7.37337 160.922 6.34737 161.126 5.18337 161.126C4.27137 161.126 3.47937 161.054 2.80737 160.91C2.14737 160.778 1.63737 160.64 1.27737 160.496C0.917367 160.364 0.737367 160.298 0.737367 160.298L1.51137 157.67H1.70937C1.86537 157.718 2.11137 157.796 2.44737 157.904C2.79537 158.012 3.22137 158.114 3.72537 158.21C4.24137 158.306 4.81737 158.354 5.45337 158.354C6.31737 158.354 7.06137 158.222 7.68537 157.958C8.32137 157.694 8.83137 157.394 9.21537 157.058L9.28737 158.21C8.90337 157.706 8.50737 157.214 8.09937 156.734C7.69137 156.266 7.30737 155.804 6.94737 155.348C6.59937 154.892 6.31737 154.43 6.10137 153.962C5.88537 153.494 5.77737 153.014 5.77737 152.522C5.77737 151.754 5.95137 151.1 6.29937 150.56C6.65937 150.008 7.12737 149.54 7.70337 149.156C8.29137 148.772 8.93337 148.46 9.62937 148.22C10.3374 147.968 11.0454 147.77 11.7534 147.626L12.0414 147.77L13.5894 151.262C13.8534 151.862 14.0874 152.342 14.2914 152.702C14.5074 153.062 14.7294 153.32 14.9574 153.476C15.1854 153.62 15.4734 153.692 15.8214 153.692V156.014L15.4614 156.374ZM3.18537 153.566C2.80137 153.566 2.46537 153.44 2.17737 153.188C1.90137 152.936 1.76337 152.588 1.76337 152.144C1.76337 151.688 1.90137 151.34 2.17737 151.1C2.46537 150.848 2.80737 150.722 3.20337 150.722C3.59937 150.722 3.93537 150.848 4.21137 151.1C4.48737 151.34 4.62537 151.688 4.62537 152.144C4.62537 152.588 4.48737 152.936 4.21137 153.188C3.93537 153.44 3.59337 153.566 3.18537 153.566ZM3.18537 156.95C2.78937 156.95 2.44737 156.824 2.15937 156.572C1.88337 156.332 1.74537 155.984 1.74537 155.528C1.74537 155.072 1.88337 154.724 2.15937 154.484C2.44737 154.232 2.78937 154.106 3.18537 154.106C3.58137 154.106 3.91737 154.232 4.19337 154.484C4.46937 154.724 4.60737 155.072 4.60737 155.528C4.60737 155.984 4.46937 156.332 4.19337 156.572C3.91737 156.824 3.58137 156.95 3.18537 156.95ZM18.9431 153.692L19.6811 156.374H15.4691V154.052L15.8291 153.692H18.9431ZM28.3571 156.374C27.5411 156.374 26.8571 156.254 26.3051 156.014C25.7531 155.774 25.2791 155.408 24.8831 154.916C24.4991 154.424 24.1271 153.788 23.7671 153.008L22.3811 149.75L23.4611 150.056C22.9691 150.068 22.5191 150.152 22.1111 150.308C21.7031 150.452 21.3491 150.644 21.0491 150.884C20.7491 151.124 20.5211 151.4 20.3651 151.712C20.2091 152.012 20.1311 152.324 20.1311 152.648C20.1311 153.068 20.2511 153.422 20.4911 153.71C20.7311 153.986 21.0431 154.196 21.4271 154.34C21.8111 154.484 22.2131 154.556 22.6331 154.556C23.1611 154.556 23.6591 154.496 24.1271 154.376C24.6071 154.256 24.9911 154.124 25.2791 153.98L25.6391 154.16L24.9011 156.734C24.4211 156.938 23.9351 157.094 23.4431 157.202C22.9631 157.322 22.5071 157.382 22.0751 157.382C21.6911 157.382 21.2711 157.334 20.8151 157.238C20.3711 157.154 19.9331 157.004 19.5011 156.788C19.0691 156.584 18.6731 156.314 18.3131 155.978C17.9651 155.63 17.6831 155.204 17.4671 154.7C17.2511 154.196 17.1431 153.602 17.1431 152.918C17.1431 151.97 17.3471 151.142 17.7551 150.434C18.1751 149.726 18.7331 149.132 19.4291 148.652C20.1251 148.172 20.8991 147.812 21.7511 147.572C22.6151 147.332 23.4851 147.212 24.3611 147.212L24.7031 147.41L26.1971 151.352C26.4851 152.12 26.8391 152.702 27.2591 153.098C27.6791 153.494 28.1651 153.692 28.7171 153.692V156.014L28.3571 156.374ZM28.7139 153.692H32.0979L31.0359 154.178C30.8919 154.034 30.7899 153.794 30.7299 153.458C30.6819 153.11 30.6579 152.684 30.6579 152.18V147.068L33.6279 146.744H33.8259V154.988L32.5479 153.692H36.1479V156.014L35.7879 156.374H28.3539V154.052L28.7139 153.692ZM31.7199 159.038C31.7199 158.582 31.8579 158.228 32.1339 157.976C32.4219 157.736 32.7639 157.616 33.1599 157.616C33.5559 157.616 33.8919 157.736 34.1679 157.976C34.4439 158.228 34.5819 158.582 34.5819 159.038C34.5819 159.482 34.4439 159.83 34.1679 160.082C33.8919 160.334 33.5559 160.46 33.1599 160.46C32.7639 160.46 32.4219 160.334 32.1339 160.082C31.8579 159.83 31.7199 159.482 31.7199 159.038ZM28.4619 159.398C28.4619 158.954 28.5999 158.606 28.8759 158.354C29.1519 158.114 29.4939 157.994 29.9019 157.994C30.2979 157.994 30.6279 158.114 30.8919 158.354C31.1679 158.606 31.3059 158.954 31.3059 159.398C31.3059 159.854 31.1679 160.208 30.8919 160.46C30.6279 160.712 30.2919 160.838 29.8839 160.838C29.4879 160.838 29.1519 160.712 28.8759 160.46C28.5999 160.208 28.4619 159.854 28.4619 159.398ZM35.7894 156.374V154.052L36.1494 153.692H39.6774L38.6334 154.178C38.4894 154.034 38.3874 153.794 38.3274 153.458C38.2674 153.11 38.2374 152.684 38.2374 152.18V143.018L41.2254 142.694H41.4234V155.006L40.1274 153.692H43.7814V156.014L43.4214 156.374H35.7894ZM43.7783 153.692H48.2423L47.7203 155.366L46.5323 152.342C46.4483 152.126 46.3283 151.85 46.1723 151.514C46.0163 151.166 45.8423 150.812 45.6503 150.452C45.4583 150.08 45.2663 149.744 45.0743 149.444C44.8943 149.132 44.7323 148.898 44.5883 148.742L44.5343 148.544C45.0383 148.136 45.6023 147.77 46.2263 147.446C46.8623 147.122 47.5283 146.864 48.2243 146.672C48.9203 146.48 49.6223 146.384 50.3303 146.384C51.2783 146.384 52.1003 146.552 52.7963 146.888C53.4923 147.224 54.0263 147.692 54.3983 148.292C54.7823 148.88 54.9743 149.546 54.9743 150.29C54.9743 150.818 54.8663 151.334 54.6503 151.838C54.4463 152.342 54.1703 152.798 53.8223 153.206C53.4743 153.614 53.0903 153.938 52.6703 154.178L52.0223 153.692H56.4863V156.014L56.1263 156.374H43.4183V154.052L43.7783 153.692ZM50.4023 154.862L49.2323 154.304C49.6883 154.088 50.1263 153.83 50.5463 153.53C50.9663 153.23 51.3143 152.858 51.5903 152.414C51.8663 151.97 52.0043 151.436 52.0043 150.812C52.0043 150.188 51.8183 149.696 51.4463 149.336C51.0863 148.964 50.6063 148.778 50.0063 148.778C49.4903 148.778 49.0163 148.88 48.5843 149.084C48.1643 149.288 47.8223 149.48 47.5583 149.66L47.7023 148.778C47.9783 149.078 48.2003 149.378 48.3683 149.678C48.5483 149.978 48.7223 150.332 48.8903 150.74C49.0583 151.148 49.2563 151.67 49.4843 152.306L50.4023 154.862ZM56.083 153.692H59.467L58.405 154.178C58.261 154.034 58.159 153.794 58.099 153.458C58.051 153.11 58.027 152.684 58.027 152.18V147.068L60.997 146.744H61.195V154.988L59.917 153.692H63.517V156.014L63.157 156.374H55.723V154.052L56.083 153.692ZM61.447 144.998C61.063 144.998 60.727 144.872 60.439 144.62C60.163 144.368 60.025 144.02 60.025 143.576C60.025 143.12 60.163 142.772 60.439 142.532C60.727 142.28 61.063 142.154 61.447 142.154C61.855 142.154 62.197 142.28 62.473 142.532C62.749 142.772 62.887 143.12 62.887 143.576C62.887 144.02 62.749 144.368 62.473 144.62C62.197 144.872 61.855 144.998 61.447 144.998ZM58.189 145.376C57.793 145.376 57.457 145.25 57.181 144.998C56.905 144.746 56.767 144.398 56.767 143.954C56.767 143.498 56.905 143.144 57.181 142.892C57.457 142.64 57.793 142.514 58.189 142.514C58.585 142.514 58.921 142.64 59.197 142.892C59.473 143.144 59.611 143.498 59.611 143.954C59.611 144.398 59.473 144.746 59.197 144.998C58.921 145.25 58.585 145.376 58.189 145.376ZM63.1586 156.374V154.052L63.5186 153.692H66.8486L65.8046 154.178C65.6606 154.034 65.5586 153.794 65.4986 153.458C65.4506 153.11 65.4266 152.684 65.4266 152.18V143L68.3966 142.676H68.5946V153.026C68.5946 153.266 68.5946 153.566 68.5946 153.926C68.6066 154.274 68.6186 154.622 68.6306 154.97C68.6546 155.306 68.6906 155.582 68.7386 155.798V155.942C68.3786 156.086 67.9406 156.194 67.4246 156.266C66.9086 156.338 66.2726 156.374 65.5166 156.374H63.1586ZM71.4445 143.018L74.7025 142.694L74.7565 142.838C74.7085 143.054 74.6725 143.324 74.6485 143.648C74.6365 143.972 74.6245 144.302 74.6125 144.638C74.6125 144.974 74.6125 145.262 74.6125 145.502V156.374H71.4445V143.018ZM81.7461 152.486H81.9441C82.0761 152.546 82.2621 152.624 82.5021 152.72C82.7421 152.804 82.9761 152.882 83.2041 152.954C83.4441 153.026 83.6301 153.086 83.7621 153.134C84.3981 153.314 85.1001 153.446 85.8681 153.53C86.6481 153.602 87.4041 153.65 88.1361 153.674C88.8801 153.686 89.5101 153.692 90.0261 153.692H97.4241L96.3801 154.178C96.2361 154.034 96.1341 153.794 96.0741 153.458C96.0261 153.11 96.0021 152.684 96.0021 152.18V147.068L98.9721 146.744H99.1701V153.026C99.1701 153.266 99.1701 153.566 99.1701 153.926C99.1821 154.274 99.1941 154.622 99.2061 154.97C99.2301 155.306 99.2661 155.582 99.3141 155.798L99.2601 155.942C98.9001 156.086 98.4321 156.194 97.8561 156.266C97.2801 156.338 96.6141 156.374 95.8581 156.374H90.0261C88.9461 156.374 87.8721 156.344 86.8041 156.284C85.7481 156.212 84.5661 156.026 83.2581 155.726C83.0301 155.666 82.7781 155.6 82.5021 155.528C82.2261 155.444 81.9621 155.36 81.7101 155.276C81.4581 155.192 81.2541 155.114 81.0981 155.042L81.7461 152.486ZM92.1861 148.328C91.8021 148.328 91.4661 148.202 91.1781 147.95C90.9021 147.698 90.7641 147.35 90.7641 146.906C90.7641 146.45 90.9021 146.102 91.1781 145.862C91.4661 145.61 91.8021 145.484 92.1861 145.484C92.5941 145.484 92.9361 145.61 93.2121 145.862C93.4881 146.102 93.6261 146.45 93.6261 146.906C93.6261 147.35 93.4881 147.698 93.2121 147.95C92.9361 148.202 92.5941 148.328 92.1861 148.328ZM88.9281 148.706C88.5321 148.706 88.1961 148.58 87.9201 148.328C87.6441 148.076 87.5061 147.728 87.5061 147.284C87.5061 146.828 87.6441 146.474 87.9201 146.222C88.1961 145.97 88.5321 145.844 88.9281 145.844C89.3241 145.844 89.6601 145.97 89.9361 146.222C90.2121 146.474 90.3501 146.828 90.3501 147.284C90.3501 147.728 90.2121 148.076 89.9361 148.328C89.6601 148.58 89.3241 148.706 88.9281 148.706ZM104.587 156.374V153.692H107.521V156.014L107.161 156.374H104.587ZM102.013 143.018L105.271 142.694L105.325 142.838C105.277 143.054 105.241 143.324 105.217 143.648C105.205 143.972 105.193 144.302 105.181 144.638C105.181 144.974 105.181 145.262 105.181 145.502V156.374H102.013V143.018ZM107.517 153.692H110.901L109.839 154.178C109.695 154.034 109.593 153.794 109.533 153.458C109.485 153.11 109.461 152.684 109.461 152.18V147.068L112.431 146.744H112.629V154.988L111.351 153.692H114.951V156.014L114.591 156.374H107.157V154.052L107.517 153.692ZM110.523 159.038C110.523 158.582 110.661 158.228 110.937 157.976C111.225 157.736 111.567 157.616 111.963 157.616C112.359 157.616 112.695 157.736 112.971 157.976C113.247 158.228 113.385 158.582 113.385 159.038C113.385 159.482 113.247 159.83 112.971 160.082C112.695 160.334 112.359 160.46 111.963 160.46C111.567 160.46 111.225 160.334 110.937 160.082C110.661 159.83 110.523 159.482 110.523 159.038ZM107.265 159.398C107.265 158.954 107.403 158.606 107.679 158.354C107.955 158.114 108.297 157.994 108.705 157.994C109.101 157.994 109.431 158.114 109.695 158.354C109.971 158.606 110.109 158.954 110.109 159.398C110.109 159.854 109.971 160.208 109.695 160.46C109.431 160.712 109.095 160.838 108.687 160.838C108.291 160.838 107.955 160.712 107.679 160.46C107.403 160.208 107.265 159.854 107.265 159.398ZM130.252 156.374V153.692H137.776V156.014L137.416 156.374H130.252ZM119.776 153.692H130.72C131.224 153.692 131.62 153.638 131.908 153.53C132.208 153.41 132.424 153.254 132.556 153.062C132.688 152.87 132.754 152.648 132.754 152.396C132.754 152.036 132.67 151.694 132.502 151.37C132.346 151.034 132.166 150.758 131.962 150.542L133.258 150.65C132.754 150.77 132.322 150.86 131.962 150.92C131.614 150.98 131.284 151.022 130.972 151.046C130.66 151.07 130.318 151.082 129.946 151.082H119.938L120.982 148.4H130.504C131.08 148.4 131.638 148.388 132.178 148.364C132.73 148.328 133.186 148.268 133.546 148.184H133.762C134.074 148.484 134.386 148.862 134.698 149.318C135.01 149.774 135.274 150.272 135.49 150.812C135.718 151.34 135.832 151.886 135.832 152.45C135.832 152.978 135.748 153.476 135.58 153.944C135.424 154.412 135.166 154.832 134.806 155.204C134.446 155.564 133.96 155.852 133.348 156.068C132.736 156.272 131.992 156.374 131.116 156.374H119.776V153.692ZM114.592 156.374V154.052L114.952 153.692H118.48L117.436 154.178C117.292 154.034 117.19 153.794 117.13 153.458C117.07 153.11 117.04 152.684 117.04 152.18V143.018L120.028 142.694H120.226V155.006L118.93 153.692H122.584V156.014L122.224 156.374H114.592ZM137.409 156.374V154.052L137.769 153.692H141.099L140.055 154.178C139.911 154.034 139.809 153.782 139.749 153.422C139.701 153.062 139.677 152.63 139.677 152.126V147.068L142.647 146.744H142.845V153.026C142.845 153.266 142.845 153.566 142.845 153.926C142.857 154.274 142.869 154.622 142.881 154.97C142.905 155.306 142.941 155.582 142.989 155.798V155.942C142.629 156.086 142.191 156.194 141.675 156.266C141.159 156.338 140.523 156.374 139.767 156.374H137.409ZM140.163 159.038C140.163 158.582 140.301 158.228 140.577 157.976C140.865 157.736 141.207 157.616 141.603 157.616C141.999 157.616 142.335 157.736 142.611 157.976C142.887 158.228 143.025 158.582 143.025 159.038C143.025 159.482 142.887 159.83 142.611 160.082C142.335 160.334 141.999 160.46 141.603 160.46C141.207 160.46 140.865 160.334 140.577 160.082C140.301 159.83 140.163 159.482 140.163 159.038ZM136.905 159.398C136.905 158.954 137.043 158.606 137.319 158.354C137.595 158.114 137.937 157.994 138.345 157.994C138.741 157.994 139.071 158.114 139.335 158.354C139.611 158.606 139.749 158.954 139.749 159.398C139.749 159.854 139.611 160.208 139.335 160.46C139.071 160.712 138.735 160.838 138.327 160.838C137.931 160.838 137.595 160.712 137.319 160.46C137.043 160.208 136.905 159.854 136.905 159.398ZM151.184 156.374V153.692H154.118V156.014L153.758 156.374H151.184ZM144.308 158.138C144.62 158.21 144.932 158.27 145.244 158.318C145.556 158.378 145.868 158.408 146.18 158.408C146.66 158.408 147.086 158.348 147.458 158.228C147.842 158.108 148.124 157.988 148.304 157.868L147.566 158.606C147.77 158.306 147.938 157.922 148.07 157.454C148.214 156.998 148.322 156.458 148.394 155.834C148.466 155.198 148.502 154.478 148.502 153.674C148.502 152.642 148.454 151.664 148.358 150.74C148.262 149.804 148.154 148.922 148.034 148.094L151.094 147.77H151.292C151.4 148.586 151.49 149.486 151.562 150.47C151.634 151.454 151.67 152.45 151.67 153.458C151.67 154.838 151.532 156.008 151.256 156.968C150.98 157.94 150.578 158.726 150.05 159.326C149.534 159.926 148.904 160.364 148.16 160.64C147.428 160.916 146.6 161.054 145.676 161.054C145.364 161.054 145.034 161.03 144.686 160.982C144.35 160.946 144.068 160.904 143.84 160.856C143.6 160.82 143.48 160.802 143.48 160.802V160.622L144.308 158.138ZM166.77 153.692H168.516V153.89L167.58 156.374L153.756 156.392V154.052L154.116 153.692H162.666L162 154.07C161.34 153.722 160.638 153.26 159.894 152.684C159.162 152.096 158.406 151.424 157.626 150.668C156.858 149.9 156.084 149.078 155.304 148.202L157.104 145.808H157.302C157.758 146.288 158.262 146.816 158.814 147.392C159.366 147.956 159.942 148.532 160.542 149.12C161.142 149.708 161.742 150.278 162.342 150.83C162.954 151.382 163.536 151.874 164.088 152.306C164.64 152.726 165.144 153.062 165.6 153.314C166.068 153.566 166.458 153.692 166.77 153.692ZM160.866 146.582C160.47 146.582 160.134 146.456 159.858 146.204C159.582 145.952 159.444 145.598 159.444 145.142C159.444 144.686 159.582 144.338 159.858 144.098C160.134 143.846 160.47 143.72 160.866 143.72C161.262 143.72 161.598 143.846 161.874 144.098C162.15 144.338 162.288 144.686 162.288 145.142C162.288 145.598 162.15 145.952 161.874 146.204C161.598 146.456 161.262 146.582 160.866 146.582ZM160.851 151.73L159.429 148.976C159.825 149.252 160.287 149.456 160.815 149.588C161.343 149.72 161.877 149.78 162.417 149.768C162.957 149.756 163.461 149.672 163.929 149.516C164.409 149.36 164.793 149.126 165.081 148.814L164.901 149.858H164.127C164.331 149.642 164.457 149.372 164.505 149.048C164.565 148.724 164.595 148.298 164.595 147.77V143.018L167.583 142.694H167.763V147.014C167.763 148.214 167.559 149.186 167.151 149.93C166.743 150.674 166.161 151.22 165.405 151.568C164.661 151.916 163.773 152.09 162.741 152.09C162.441 152.09 162.129 152.06 161.805 152C161.493 151.94 161.175 151.85 160.851 151.73ZM170.163 143.018L173.421 142.694L173.475 142.838C173.427 143.054 173.391 143.324 173.367 143.648C173.355 143.972 173.343 144.302 173.331 144.638C173.331 144.974 173.331 145.262 173.331 145.502V156.374H170.163V143.018ZM185.919 156.374V153.692H188.853V156.014L188.493 156.374H185.919ZM179.043 158.138C179.355 158.21 179.667 158.27 179.979 158.318C180.291 158.378 180.603 158.408 180.915 158.408C181.395 158.408 181.821 158.348 182.193 158.228C182.577 158.108 182.859 157.988 183.039 157.868L182.301 158.606C182.505 158.306 182.673 157.922 182.805 157.454C182.949 156.998 183.057 156.458 183.129 155.834C183.201 155.198 183.237 154.478 183.237 153.674C183.237 152.642 183.189 151.664 183.093 150.74C182.997 149.804 182.889 148.922 182.769 148.094L185.829 147.77H186.027C186.135 148.586 186.225 149.486 186.297 150.47C186.369 151.454 186.405 152.45 186.405 153.458C186.405 154.838 186.267 156.008 185.991 156.968C185.715 157.94 185.313 158.726 184.785 159.326C184.269 159.926 183.639 160.364 182.895 160.64C182.163 160.916 181.335 161.054 180.411 161.054C180.099 161.054 179.769 161.03 179.421 160.982C179.085 160.946 178.803 160.904 178.575 160.856C178.335 160.82 178.215 160.802 178.215 160.802V160.622L179.043 158.138ZM184.137 146.132C183.741 146.132 183.405 146.006 183.129 145.754C182.853 145.502 182.715 145.148 182.715 144.692C182.715 144.236 182.853 143.888 183.129 143.648C183.405 143.396 183.741 143.27 184.137 143.27C184.533 143.27 184.869 143.396 185.145 143.648C185.421 143.888 185.559 144.236 185.559 144.692C185.559 145.148 185.421 145.502 185.145 145.754C184.869 146.006 184.533 146.132 184.137 146.132ZM188.491 156.374L188.509 154.052L188.869 153.692H204.043C204.883 153.692 205.459 153.602 205.771 153.422C206.083 153.23 206.239 152.93 206.239 152.522C206.239 152.162 206.155 151.796 205.987 151.424C205.831 151.052 205.645 150.758 205.429 150.542L206.743 150.65C206.239 150.77 205.807 150.86 205.447 150.92C205.087 150.98 204.751 151.022 204.439 151.046C204.139 151.07 203.803 151.082 203.431 151.082H192.307C191.743 151.082 191.257 150.932 190.849 150.632C190.453 150.32 190.219 149.78 190.147 149.012L197.455 142.442H197.635L198.877 144.35L193.315 149.228L192.865 148.4H203.989C204.553 148.4 205.111 148.388 205.663 148.364C206.215 148.328 206.671 148.268 207.031 148.184H207.247C207.547 148.46 207.853 148.826 208.165 149.282C208.477 149.738 208.747 150.248 208.975 150.812C209.203 151.376 209.317 151.964 209.317 152.576C209.317 153.08 209.233 153.56 209.065 154.016C208.897 154.472 208.609 154.88 208.201 155.24C207.805 155.588 207.271 155.864 206.599 156.068C205.927 156.272 205.075 156.374 204.043 156.374H188.491ZM217.19 156.374V153.692H220.124V156.014L219.764 156.374H217.19ZM210.314 158.138C210.626 158.21 210.938 158.27 211.25 158.318C211.562 158.378 211.874 158.408 212.186 158.408C212.666 158.408 213.092 158.348 213.464 158.228C213.848 158.108 214.13 157.988 214.31 157.868L213.572 158.606C213.776 158.306 213.944 157.922 214.076 157.454C214.22 156.998 214.328 156.458 214.4 155.834C214.472 155.198 214.508 154.478 214.508 153.674C214.508 152.642 214.46 151.664 214.364 150.74C214.268 149.804 214.16 148.922 214.04 148.094L217.1 147.77H217.298C217.406 148.586 217.496 149.486 217.568 150.47C217.64 151.454 217.676 152.45 217.676 153.458C217.676 154.838 217.538 156.008 217.262 156.968C216.986 157.94 216.584 158.726 216.056 159.326C215.54 159.926 214.91 160.364 214.166 160.64C213.434 160.916 212.606 161.054 211.682 161.054C211.37 161.054 211.04 161.03 210.692 160.982C210.356 160.946 210.074 160.904 209.846 160.856C209.606 160.82 209.486 160.802 209.486 160.802V160.622L210.314 158.138ZM226.332 147.266C227.46 147.266 228.432 147.476 229.248 147.896C230.064 148.316 230.688 148.886 231.12 149.606C231.564 150.314 231.786 151.118 231.786 152.018C231.786 152.93 231.576 153.752 231.156 154.484C230.748 155.204 230.166 155.78 229.41 156.212C228.666 156.632 227.796 156.842 226.8 156.842C226.152 156.842 225.516 156.746 224.892 156.554C224.28 156.374 223.698 156.092 223.146 155.708C222.606 155.312 222.108 154.808 221.652 154.196L223.992 152.414C224.364 152.762 224.79 153.074 225.27 153.35C225.75 153.614 226.248 153.824 226.764 153.98C227.28 154.136 227.778 154.22 228.258 154.232C228.474 154.244 228.636 154.25 228.744 154.25C228.864 154.238 228.96 154.232 229.032 154.232L227.52 155.114C227.868 154.73 228.15 154.316 228.366 153.872C228.594 153.416 228.708 152.912 228.708 152.36C228.708 151.832 228.546 151.382 228.222 151.01C227.91 150.638 227.484 150.362 226.944 150.182C226.404 149.99 225.792 149.906 225.108 149.93L225.702 149.372C225.618 150.452 225.468 151.43 225.252 152.306C225.048 153.17 224.73 153.902 224.298 154.502C223.866 155.102 223.284 155.564 222.552 155.888C221.82 156.212 220.89 156.374 219.762 156.374V154.052L220.122 153.692C220.806 153.692 221.328 153.494 221.688 153.098C222.048 152.702 222.324 152.084 222.516 151.244C222.72 150.404 222.894 149.33 223.038 148.022L223.29 147.788C223.734 147.644 224.22 147.524 224.748 147.428C225.276 147.32 225.804 147.266 226.332 147.266Z" fill="black"/>
</svg>
