<?xml version="1.0" encoding="utf-8"?>
<!-- Generator: Adobe Illustrator 25.2.1, SVG Export Plug-In . SVG Version: 6.00 Build 0)  -->
<svg version="1.1" id="Layer_1" xmlns="http://www.w3.org/2000/svg" xmlns:xlink="http://www.w3.org/1999/xlink" x="0px" y="0px"
	 viewBox="0 0 512 512" style="enable-background:new 0 0 512 512;" xml:space="preserve">
<style type="text/css">
	.st0{fill:#F4F8E8;}
</style>
<g id="XMLID_1473_">
	<path id="XMLID_1476_" class="st0" d="M119.3,469.1c1.2,24.1,20.9,42.9,45.1,42.9h183.2c24.2,0,43.9-18.8,45.1-42.9l26.4-303.4
		H92.9L119.3,469.1z M301.2,240.9h30.1v165.6h-30.1V240.9z M240.9,240.9h30.1v165.6h-30.1V240.9z M180.7,240.9h30.1v165.6h-30.1
		V240.9z"/>
	<path id="XMLID_1481_" class="st0" d="M331.3,75.3V45.2C331.3,20.3,311,0,286.1,0h-60.2c-24.9,0-45.2,20.3-45.2,45.2v30.1H60.2
		v60.2h391.5V75.3H331.3z M210.8,75.3V45.2c0-8.3,6.8-15.1,15.1-15.1h60.2c8.3,0,15.1,6.8,15.1,15.1v30.1H210.8z"/>
</g>
</svg>
