<?xml version="1.0" encoding="utf-8"?>
<!-- Generator: Adobe Illustrator 25.2.1, SVG Export Plug-In . SVG Version: 6.00 Build 0)  -->
<svg version="1.1" id="Layer_1" xmlns="http://www.w3.org/2000/svg" xmlns:xlink="http://www.w3.org/1999/xlink" x="0px" y="0px"
	 viewBox="0 0 512 512" style="enable-background:new 0 0 512 512;" xml:space="preserve">
<style type="text/css">
	.st0{fill:#FFFFFF;}
</style>
<g id="Froppy_disk">
	<path class="st0" d="M493.7,82.3l-64-64c-1.5-1.5-3.5-2.3-5.7-2.3H56c-22.1,0-40,17.9-40,40v400c0,22.1,17.9,40,40,40h400
		c22.1,0,40-17.9,40-40V88C496,85.9,495.2,83.8,493.7,82.3z M384,32v128c0,4.4-3.6,8-8,8H136c-4.4,0-8-3.6-8-8V32H384z M80,480V280
		c0-13.3,10.7-24,24-24h304c13.3,0,24,10.7,24,24v200H80z M480,456c0,13.3-10.7,24-24,24h-8V280c0-22.1-17.9-40-40-40H104
		c-22.1,0-40,17.9-40,40v200h-8c-13.3,0-24-10.7-24-24V56c0-13.3,10.7-24,24-24h56v128c0,13.3,10.7,24,24,24h240
		c13.3,0,24-10.7,24-24V32h20.7L480,91.3V456z"/>
	<path class="st0" d="M312,152h48c4.4,0,8-3.6,8-8V56c0-4.4-3.6-8-8-8h-48c-4.4,0-8,3.6-8,8v88C304,148.4,307.6,152,312,152z
		 M320,64h32v72h-32V64z"/>
	<path class="st0" d="M376,360H136c-4.4,0-8,3.6-8,8s3.6,8,8,8h240c4.4,0,8-3.6,8-8S380.4,360,376,360z"/>
	<path class="st0" d="M376,312H136c-4.4,0-8,3.6-8,8s3.6,8,8,8h240c4.4,0,8-3.6,8-8S380.4,312,376,312z"/>
	<path class="st0" d="M376,408H136c-4.4,0-8,3.6-8,8s3.6,8,8,8h240c4.4,0,8-3.6,8-8S380.4,408,376,408z"/>
</g>
</svg>
